<mxfile host="app.diagrams.net" modified="2023-12-18T23:46:53.987Z" agent="Mozilla/5.0 (Macintosh; Intel Mac OS X 10_15_7) AppleWebKit/605.1.15 (KHTML, like Gecko) Version/17.2 Safari/605.1.15" version="22.1.11" etag="PeSPUMP5hWl3JMiPl9OM" type="github">
  <diagram name="Page-1" id="4SwRdleDUN5TUiQHC0CQ">
    <mxGraphModel>
      <root>
        <mxCell id="0" />
        <mxCell id="1" parent="0" />
      </root>
    </mxGraphModel>
  </diagram>
</mxfile>
